<?xml version="1.0" encoding="UTF-8" standalone="no"?>
<svg id="svg4199" xmlns:rdf="http://www.w3.org/1999/02/22-rdf-syntax-ns#" xmlns="http://www.w3.org/2000/svg" height="286.26" viewBox="0 0 973.76811 286.25468" width="973.76" version="1.1" xmlns:cc="http://creativecommons.org/ns#" xmlns:dc="http://purl.org/dc/elements/1.1/">
<path id="path4209" stroke-linejoin="round" d="m956.56 48.501c-8.2205-4.4287-22.017-6.7374-43.835-8.4645-3.3134-0.26228-15.094-1.7509-26.179-3.3079-36.71-5.1562-65.822-8.739-82.953-10.21-9.3047-0.79872-35.087-3.0189-57.293-4.934-35.361-3.0496-78.508-6.4931-103.7-8.2767-4.411-0.31225-11.185-0.88992-15.055-1.283-9.5348-0.96864-16.661 1.179-19.218 5.7907-1.2916 2.3298-3.7245 16.12-7.4719 42.351-3.0563 21.393-6.1506 39.967-6.8762 41.276-1.9621 3.539-3.683 3.634-33.684 1.8505-35.003-2.0808-53.245-2.1776-78.594-0.41405-28.903 2.0109-28.2 1.6546-29.433 14.936-0.93441 10.058-1.415 10.657-10.16 12.655-7.8784 1.7999-71.467 11.969-100.47 16.067-9.276 1.3105-21.869 3.5903-27.984 5.0667-23.846 5.7575-23.626 6.3398-15.087-40.04 7.0413-38.244 6.9975-36.869 1.3223-41.055-2.5323-1.8679-5.2015-4.9194-6.5033-7.4354-1.9263-3.723-3.1616-4.8207-9.6919-8.6003-10.246-5.9299-10.427-6.3524-7.8897-18.441 3.5371-16.851 2.1111-18.172-25.047-23.21-22.602-4.1929-71.237-6.9189-103.87-5.821-38.462 1.2939-37.792 0.95876-75.688 38.045-27.732 27.14-23.441 20.62-47.081 71.545-22.256 47.942-21.67 42.135-6.5625 65.004 5.7338 8.6796 15.807 24.171 22.385 34.425 16.811 26.206 31.747 50.851 41.325 59.359 2.5381 2.2545 3.0157 2.4858 7.2107 3.493 8.6771 2.0832 13.757 0.1561 32.911-12.487 35.133-23.191 37.032-24.118 61.144-29.777 84.747-19.891 76.062-16.119 95.197-41.336 19.368-25.524 18.531-25.059 55.334-30.677 122.06-18.634 115.11-18.091 164.22-12.811 13.596 1.4619 34.354 3.4628 46.129 4.448s43.314 4.0419 70.089 6.7914 58.122 5.7141 69.659 6.5886c11.537 0.87453 36.22 3.2221 54.85 5.2164s56.029 5.8898 83.109 8.6566 50.981 5.306 53.113 5.6425c5.0058 0.78995 65.001 6.4012 70.449 6.589 12.803 0.44158 16.658-19.776 19.435-81.698 0.74306-16.568 1.859-34.586 2.4804-40.042 1.4476-12.712-0.70571-20.455-10.022-25.474z" stroke="#ffffff30" stroke-width="12.6" fill="none"/>
</svg>
