<?xml version="1.0" encoding="UTF-8" standalone="no"?>
<svg id="svg4182" xmlns:rdf="http://www.w3.org/1999/02/22-rdf-syntax-ns#" xmlns="http://www.w3.org/2000/svg" height="282.28" viewBox="0 0 431.76266 282.2795" width="431.76" version="1.1" xmlns:cc="http://creativecommons.org/ns#" xmlns:dc="http://purl.org/dc/elements/1.1/">
<path id="path4192" stroke-linejoin="round" d="m4.0167 271.88c0.64631 8.2948 35.488 7.0412 175.53 4.453 12.377-0.22874 23.86-0.27059 25.52-0.0932 13.322 1.4247 100.54 2.2285 145.19 1.3382l52.003-1.0371 10.787-5.1931c5.9327-2.8564 11.75-6.3558 12.928-7.7758 3.9507-4.7641 3.2062-6.3707-21.921-47.254-13.094-21.305-31.084-50.583-39.976-65.064-78.47-127.81-76.73-125.33-87.73-124.85-10.071 0.43333-18.612 11.049-30.86 38.362-6.0647 12.461-9.3595 17.392-9.4458 30.499-0.16791 25.024 10.566 36.802 43.884 48.15 27.605 9.4028 44.83 34.219 37.75 54.389-2.9794 8.4869-5.7122 8.9248-56.109 8.9963-116.27 0.16506-159.78-0.95414-191.07-4.9201-0.01764-0.002-0.0317-0.005-0.04921-0.008-1.3307-0.66808-2.43-1.5305-2.9028-2.6746 0.52921-1.7786 2.7076-4.7102 6.8088-9.6375 12.941-15.548 12.809-15.542 95.728-5.2995 57.897 7.1518 61.142 0.92171 16.441-31.574-40.6-29.52-40.53-29.42-36.96-49.77 3.4-19.413-0.73-26.128-20.45-33.214-14.94-5.372-30.31-18.671-50.912-44.055-23.312-28.723-35.64-28.862-40.096-0.451-16.672 106.31-23.197 153.18-23.266 178.19-0.10452 1.6859-0.07039 3.3487 0.08572 4.9912 0.31161 8.3078 1.4916 13.926 3.3599 18.797 7.4095 19.318 7.6168 17.58-3.5718 30.076-5.9649 6.6621-10.949 11.37-10.696 14.616z" stroke="#ffffff30" stroke-width="8" fill="none"/>
</svg>
