<?xml version="1.0" encoding="utf-8"?>
<!-- Generator: Adobe Illustrator 22.0.1, SVG Export Plug-In . SVG Version: 6.00 Build 0)  -->
<svg version="1.1"
	 id="svg2" xmlns:cc="http://creativecommons.org/ns#" xmlns:dc="http://purl.org/dc/elements/1.1/" xmlns:rdf="http://www.w3.org/1999/02/22-rdf-syntax-ns#"
	 xmlns="http://www.w3.org/2000/svg" xmlns:xlink="http://www.w3.org/1999/xlink" x="0px" y="0px" viewBox="0 0 560.8 336.5"
	 style="enable-background:new 0 0 560.8 336.5;" xml:space="preserve">
<style type="text/css">
	.st0{fill:none;stroke:#ffffff30;stroke-width:6.4;}
</style>
<path id="path4192" class="st0" d="M555.8,117.4c-8.1-31.7-44.8-84.7-71-100.1C458.1,1.4,331-1.9,276.3,11.7
	c-14.7,3.7-98.1,45.4-136.3,68.2c-4.9,2.9-33.8,19-64.4,35.8c-64.2,35.2-72.6,41.7-72.5,55.4c0.1,10.4,2.3,13.1,17.4,21.5
	c19.6,10.9,21.5,14.7,16.1,32.3c-14.9,48.4,21.8,101.9,71,103.4c217.6,6.6,331.5,6.5,339.2-0.1c13.6-11.8,10.7-68.5-4.9-95.7
	c-8.8-15.4-16.7-19.2-147.8-71.8c-52.6-21.1-52.6-21.1-57.8-46.5c-6.3-30.9,1.9-43.3,39.5-59.3c44.4-18.9,55.5-17,46.3,8.1
	c-8.5,23-6.1,35.3,8.1,43.2c17.9,9.9,25.9,4.7,48.2-30.9c18.1-28.9,50.3-51.4,63.4-44.4c7.8,4.2,5.6,11.8-9.8,33.6
	c-29.9,42.4-31.4,66.6-5.6,90.4c14.8,13.7,109.3,44.9,117.2,38.7c8.4-6.7,15.5-41.4,13.8-67.1C557.2,123.7,556.7,120.6,555.8,117.4
	L555.8,117.4z"/>
</svg>
