<?xml version="1.0" encoding="UTF-8" standalone="no"?>
<svg id="svg4176" xmlns:rdf="http://www.w3.org/1999/02/22-rdf-syntax-ns#" xmlns="http://www.w3.org/2000/svg" height="157.63" viewBox="0 0 596.37648 157.6257" width="596.37" version="1.1" xmlns:cc="http://creativecommons.org/ns#" xmlns:dc="http://purl.org/dc/elements/1.1/">
<path id="path4186" stroke-linejoin="round" d="m591.44 131.15c0.15099-0.61178 0.23731-1.3043 0.28467-2.0835 0.38886-6.3982 2.6423-6.0656-45.213-6.6566-0.93449-0.0115-1.8784-0.0436-2.8262-0.083-5.4641-0.46551-10.902-1.0967-16.293-1.9533-20.123-3.8708-44.916-13.535-81.644-31.413-26.897-13.092-30.275-16.386-29.417-28.677 0.53487-7.6556 0.33865-7.8061-26.81-20.744-21.434-10.215-37.076-16.632-48.455-19.877-77.102-21.988-121.57-20.145-121.22 5.0202 0.16339 11.898-0.56922 12.022-32.715 5.551-34.05-6.854-39.82-6.1916-54.252 6.227-8.6318 7.4276-10.842 8.8145-28.217 17.72-14.9 7.6363-16.128 7.8436-23.588 3.9602-9.2484-4.8146-12.648-3.3416-38.165 16.55-14.906 11.62-24.159 22.23-32.142 37.339-0.26736 0.42513-0.54975 0.84036-0.81242 1.2686-0.89466 1.6586-1.7729 3.523-2.5398 5.4865-0.35846 0.76779-0.71788 1.526-1.074 2.3174-4.0072 8.9055-1.5783 18.038 5.3322 20.048 6.0712 1.7659 6.3654 1.6202 12.36-6.144 6.8961-8.9324 7.8575-9.2349 18.306-5.7547 4.1623 1.3864 11.437 3.8037 16.166 5.3729 23.092 7.6626 28.293 8.4027 59.035 8.3838 2.529-0.002 11.496-0.008 19.926-0.0138 8.4301-0.005 20.172-0.0908 26.093-0.18904 5.9208-0.0982 17.653-0.13568 26.071-0.0839 8.4181 0.0518 20.584 0.0781 27.035 0.0581 12.506-0.0388 13.803 0.38624 15.665 5.1362 1.6043 4.0925 3.7396 5.5329 7.8336 5.2822 2.993-0.18323 27.742-0.3097 42.847-0.21845 15.076 0.0911 66.828 0.1976 83.743 0.17213 10.961-0.0165 33.025 0.007 49.03 0.0527s31.704-0.27157 34.885-0.70448c7.7098-1.0492 40.895-6.6478 45.211-7.6276 1.8805-0.42687 9.5095-1.7295 16.953-2.8952 7.4439-1.1656 19.621-3.7397 27.059-5.7197l7.1109-1.8912c3.5489-0.60589 7.1079-1.0709 10.683-1.3028l12.261 1.1607c16.211 1.537 20.438 1.2089 21.495-3.0736z" stroke="#ffffff30" stroke-width="8.8" fill="none"/>
</svg>
