<?xml version="1.0" encoding="UTF-8" standalone="no"?>
<svg id="svg4205" xmlns:rdf="http://www.w3.org/1999/02/22-rdf-syntax-ns#" xmlns="http://www.w3.org/2000/svg" height="286.2" viewBox="0 0 1028.6506 286.19806" width="1028.7" version="1.1" xmlns:cc="http://creativecommons.org/ns#" xmlns:dc="http://purl.org/dc/elements/1.1/">
<path id="path4217" stroke-linejoin="round" d="m13.96 222.89c-8.5179 6.3136-7.2878 18.045-3.8094 26.76 3.2083 8.6474 4.3162 18.722 10.086 26.114 6.4811 3.6858 11.676-5.0015 16.082-8.3619 8.5805-7.0603 18.045-17.859 30.301-15.434 11.157 5.4575 15.397 18.655 24.472 26.569 21.113 1.0932 42.083-3.568 62.767-7.2447 23.877-5.3246 47.943-10.644 72.513-9.8927 29.442-1.169 59.209 6.3477 88.291-0.9877 9.7041-1.3395 20.048-6.9098 21.391-17.604 2.2016-9.0906 0.67058-20.512 9.4925-26.522 5.6093-5.6263 13.175-8.5434 21.128-7.5708 86.313-0.345 172.82 0.2883 259.23 0.54765 40.555-0.30178 81.126 0.63168 121.67 0.17279 4.6451-0.16432 14.382-0.92682 12.142-7.8298-6.3084-12.348-17.928-22.459-20.432-36.402-1.1983-15.04 8.2932-32.43 24.654-33.618 20.419-2.0552 41.511 4.0326 62.049-0.80217 28.172-4.9768 51.683-24.778 65.485-49.294 7.0192-10.951 11.385-24.404 22.09-32.3 13.046-4.8932 26.046 6.6135 31.375 17.738 5.6345 22.758 2.7702 46.745 5.2446 70.01 1.3759 12.931 1.8459 30.096 15.546 36.35 14.501 5.8413 32.227 2.7014 43.031-8.9117 14.34-11.763 14.649-33.516 8.8788-49.537-23.48-29.815-45.09-61.147-70.26-89.526-12.11-13.014-30.44-20.504-48.2-16.896-36.44 5.998-71.3 18.853-106.8 28.699-46.198 13.319-91.874 28.48-138.49 40.279-18.271 3.596-37.422 2.9019-56.089 3.3106-12.839 0.84222-24.316-8.2071-37.059-6.2751-6.8146 3.8384-6.6938 13.413-8.898 20.065-1.0841 7.1624-3.3269 15.754-11.498 17.602-69.37 22.085-139.41 42.128-209.08 63.288-69.488 20.462-138.53 42.453-208.28 62.004-10.759 3.8237-22.996 2.7392-32.194-4.3482-20.706-11.497-45.611-22.095-69.442-14.375-2.6798 1.0132-5.2408 2.3876-7.4535 4.2186z" stroke="#ffffff30" stroke-linecap="round" stroke-width="13.1" fill="none"/>
</svg>
