<?xml version="1.0" encoding="UTF-8" standalone="no"?>
<svg id="svg4227" xmlns:rdf="http://www.w3.org/1999/02/22-rdf-syntax-ns#" xmlns="http://www.w3.org/2000/svg" height="556.78" viewBox="0 0 631.64722 556.7829" width="631.65" version="1.1" xmlns:cc="http://creativecommons.org/ns#" xmlns:dc="http://purl.org/dc/elements/1.1/">
<path id="path4237" d="m98.096 118.04c-0.73942 0.28873-1.4763 0.64373-2.2094 1.0658-2.5087 1.4444-6.5001 9.5439-25.148 51.03-12.192 27.123-28.206 62.159-35.588 77.858-21.342 45.389-23.864 54.214-27.374 95.779-3.0014 35.538-4.8789 30.437 19.379 52.652 11.075 10.142 23.025 21.243 26.556 24.668 19.738 19.148 59.32 58.445 85.117 84.505 39.082 39.481 44.548 43.854 56.382 45.11 8.2661 0.87764 19.892-3.3276 24.234-8.7671 33.246-41.648 33.302-47.969 0.6217-70.519-16.112-11.118-19.876-12.556-34.011-12.987-17.849-0.5449-20.468-2.395-39.401-27.862-12.378-16.65-14.018-24.961-6.6918-33.905 8.0495-9.8272 15.001-7.8573 53.562 15.18 74.322 44.401 76.458 45.267 95.307 38.663 11.752-4.1172 7.6431 0.86144 104.88-127.06 15.211-20.012 20.24-36.177 15.47-49.715-1.9598-5.5616-1.6403-5.2458-18.434-18.32-10.755-8.3729-19.076-22.908-21.24-37.105-1.4946-9.8039-6.8134-7.8376 59.879-22.149 81.212-17.427 66.927-8.8474 110.42-66.316 17.783-23.499 43.638-57.412 57.455-75.363 32.11-41.749 33.01-43.679 22.24-47.765-5.29-2.0082-6.31-1.3685-30.19 19.102-125.45 107.51-148.17 123.65-199.82 141.91-22.117 7.818-24.619 8.4378-56.049 13.924-37.657 6.5728-69.906 6.2684-124.92-1.1818-63.482-8.5976-69.841-11.294-78.592-33.329-9.0698-22.837-20.767-33.42-31.859-29.089z" stroke="#ffffff30" stroke-width="11.9" fill="none"/>
</svg>
