<?xml version="1.0" encoding="UTF-8" standalone="no"?>
<svg id="svg4274" xmlns:rdf="http://www.w3.org/1999/02/22-rdf-syntax-ns#" xmlns="http://www.w3.org/2000/svg" height="461.3" viewBox="0 0 437.73771 461.30649" width="437.73" version="1.1" xmlns:cc="http://creativecommons.org/ns#" xmlns:dc="http://purl.org/dc/elements/1.1/">
<path id="path4284" stroke-linejoin="round" d="m40.067 14.123c-8.9048 7.1741-12.694 18.114-9.172 28.954 4.1434 12.753 1.6676 10.541 60.033 53.639 17.178 12.684 17.047 12.447 16.228 29.928-0.97445 20.808 0.52219 29.919 18.403 112.08 22.128 101.67 16.542 90.786 54.335 105.9 32.5 13 39.382 22.263 28.913 38.916-6.1171 9.73-6.9455 9.8578-63.829 9.8268-59.917-0.0327-67.575 0.67397-87.409 8.0588-50.408 18.77-72.152 55.14-32.845 54.95 102.34-0.51 176.79-0.6 213.83-0.27 116.52 1.0368 145.5 0.95484 153.76-0.4345 21.84-3.6724 32.553-34.007 17.489-49.522-10.709-11.03-12.531-11.416-55.362-11.737-38.683-0.28994-43.317-1.8185-45.314-14.948-3.0978-20.37 20.877-24.637 79.733-14.191 38.208 6.7811 34.721 12.572 38.742-64.376 1.6891-32.318 3.7511-69.635 4.5806-82.926 3.0452-48.797 2.6564-49.356-46.592-67.284-37.756-13.745-35.371-11.318-70.168-71.361-13.34-23.017-23.36-24.788-51.07-9.022-28.58 16.263-25.6 16.749-61.17-9.986-31.2-23.455-29.64-21.886-28.69-28.824 1.85-13.654-0.48-14.751-45.94-21.631-44.248-6.6966-62.203-7.0461-77.962-1.5198-4.024 1.4111-7.5601 3.3838-10.528 5.7751z" stroke="#ffffff30" stroke-width="9.0001" fill="none"/>
</svg>
