<?xml version="1.0" encoding="utf-8"?>
<!-- Generator: Adobe Illustrator 22.0.1, SVG Export Plug-In . SVG Version: 6.00 Build 0)  -->
<svg version="1.1"
	 id="svg2" xmlns:cc="http://creativecommons.org/ns#" xmlns:dc="http://purl.org/dc/elements/1.1/" xmlns:rdf="http://www.w3.org/1999/02/22-rdf-syntax-ns#"
	 xmlns="http://www.w3.org/2000/svg" xmlns:xlink="http://www.w3.org/1999/xlink" x="0px" y="0px" viewBox="0 0 785.3 385.6"
	 style="enable-background:new 0 0 785.3 385.6;" xml:space="preserve">
<style type="text/css">
	.st0{fill:none;stroke:#ffffff30;stroke-width:12.4;stroke-linejoin:round;}
</style>
<g id="g4137" transform="translate(.20002 .19933)">
	<path id="path4194" class="st0" d="M761.2,65.1c1.8-2.1,3.7-4.6,5.8-7.6c39.7-55.8-25-69.1-127.7-26.2
		c-29.9,12.5-38.3,16.1-138.5,74.8c-40.6,23.8-52.1,32.6-52.3,32.4c14.5,9.1,21.9,13.1,33.1,19.1c43.5,23.4,41.8,23.4,53.9,48.2
		c11.1,22.5,17.1,26.9,23.6,17c3.2-4.8,2.9-6.5-5.5-33c-15.7-50-14.1-63.1,11.7-93.2c36-42,80-52.3,141.5-33
		C742.5,74.9,751.3,76.4,761.2,65.1L761.2,65.1z"/>
	<path id="path4190" class="st0" d="M382.4,355.3c7.7-8.9,10.9-19.9,10.5-34.2c-0.2-8.5,1.7-10.8,10.6-12.2
		c15.1-2.4,14.7-0.4,12.9-59.1c-1.3-44.7-1.1-48.5,3.4-65.9c6.4-24.5,12.7-35.5,24.4-42.3l4.5-3c-5.8-3.8-11.7-7.3-16.5-10
		c-18-10.3-16.8-10.9-37.7,18.1c-19.7,27.4-17.2,20.7-10.6,56.7c10.9,58.6,3.3,85.7-30,107.3c-34.2,22.2-49.6,19.5-67.8-11.7
		c-19.2-33-39.1-35.9-64.5-9.5c-17.9,18.7-28,20-53.2,7c-22.7-11.8-32-10.7-47.4,5.3c-13.9,14.5-13.9,14.5-56.8,8.4
		c-31.1-4.4-37.4-4.7-44.5-1.4C-0.8,318.1,2.1,344.3,26,365c9.5,8.2,17.3,8.8,142.7,11c19.3,0.3,38.1,0.8,41.7,0.9
		c70.4,3.6,126.6,2.6,140.8-2.5C365.4,369.3,375.6,363.2,382.4,355.3L382.4,355.3z"/>
</g>
</svg>
