<?xml version="1.0" encoding="UTF-8" standalone="no"?>
<svg id="svg4159" xmlns:rdf="http://www.w3.org/1999/02/22-rdf-syntax-ns#" xmlns="http://www.w3.org/2000/svg" height="350.75" viewBox="0 0 493.09464 350.7504" width="493.09" version="1.1" xmlns:cc="http://creativecommons.org/ns#" xmlns:dc="http://purl.org/dc/elements/1.1/">
<path id="path4169" stroke-linejoin="round" d="m54.995 4.407c-8.317 0.228-15.478 1.274-21.606 3.1358-6.906 1.4582-13.418 4.6492-17.701 10.274-4.626 4.752-7.8599 10.784-9.8735 18.137-3.3534 12.246-1.8465 13.661 16.728 15.709 7.495 0.82657 14.269 2.0112 15.054 2.6338 5.4968 4.3599 12.11 2.506 17.274-4.8449 3.04-4.3275 6.2082-5.8368 7.6361-3.6369 1.3829 2.1306 6.4358 41.98 6.6715 52.613 0.07338 3.3102 3.2231 5.7876 8.2434 6.4849 2.4292 0.33742 28.34 3.6368 57.579 7.3312 54.712 6.913 61.638 8.0104 70.264 11.127 3.9967 1.4442 36.471 18.112 44.187 22.679 2.5506 1.5097 5.3774 6.957 9.1694 17.678 3.6291 10.261 6.5694 13.886 12.111 14.931 1.5324 0.28878 12.761 1.8183 24.955 3.4009 28.122 3.6502 34.621 6.8789 38.806 19.274 3.3509 9.9258 9.6675 16.727 22.74 24.486 4.5702 2.7128 9.2187 6.0945 10.329 7.5151l2.0187 2.5829-5.0447 49.946c-5.9004 58.414-5.7636 53.893-1.752 57.477 6.0639 5.4179 8.6005 4.4587 26.358-9.9655 19.711-16.011 19.925-16.736 7.298-24.617-4.4515-2.7781-8.3992-5.8414-8.7741-6.8072-1.0469-2.697-2.2912-0.50799 36.687-64.6 7.8002-12.826 19.941-33.575 26.979-46.109 7.0381-12.534 15.823-28.175 19.524-34.758 12.494-22.226 17.94-39.186 17.839-55.559l-0.0562-8.9678-6.5769-3.398c-7.7844-4.0225-7.9327-4.4539-5.8859-17.171 3.2373-20.113 5.9389-19.057-73.148-28.607-28.408-3.4303-62.483-7.5845-75.723-9.2304s-34.215-3.6877-46.612-4.5365c-22.06-1.505-43.45-3.645-111.27-11.128-46.84-5.344-81.619-13.756-114.42-13.475z" stroke="#ffffff30" stroke-width="8.8" fill="none"/>
</svg>
