<?xml version="1.0" encoding="utf-8"?>
<!-- Generator: Adobe Illustrator 22.0.1, SVG Export Plug-In . SVG Version: 6.00 Build 0)  -->
<svg version="1.1"
	 id="svg2" xmlns:cc="http://creativecommons.org/ns#" xmlns:dc="http://purl.org/dc/elements/1.1/" xmlns:rdf="http://www.w3.org/1999/02/22-rdf-syntax-ns#"
	 xmlns="http://www.w3.org/2000/svg" xmlns:xlink="http://www.w3.org/1999/xlink" x="0px" y="0px" viewBox="0 0 458.3 382.2"
	 style="enable-background:new 0 0 458.3 382.2;" xml:space="preserve">
<style type="text/css">
	.st0{fill:none;stroke:#ffffff30;stroke-width:7.6001;stroke-linejoin:round;}
</style>
<path id="path4159" class="st0" d="M65.3,378.2c15.4-0.9,26.2-13.6,38.8-20.9c16.9-12.1,36.7-21.4,49.5-38.2
	c4.2-13.3-8-24.4-8.6-37.3c-2.7-14.4,4.4-30.9,19-35.5c24.1-8.9,49.1,3.7,73.8,0.7c17-1.4,34.1-4.9,51-1.2
	c15.5,3.1,31.2,3.4,46.9,3.4c22.6,0.7,45.1,5,67,9.5c11-3.9,10.2-17.9,17.1-25.7c10.3-16.6,18.9-34.5,22-53.9
	c11.6-47.5,18.2-98.1,6.7-146.2c-3.3-7.8,2.2-18.8-6.2-24c-9.5-6.3-21.8-5-32.5-5.1c-7.1,3.6-3.9,13.6,1,17.7
	c7.6,8,13.1,17.8,15.8,28.5c4.7,15.5,6.8,33.2,0.1,48.4c-5.4,5.9-11.5,12-11.6,20.6c-2.8,12.9-6.2,27.3,0.1,39.7
	c7.5,20.6-1.5,42.8-13.4,59.7c-6,6.9-11.6,15.9-20.7,18.5c-13.6,1.8-26.8-3.9-40.2-5.5c-22.4-4.5-45.7-6-67.5-13.1
	c-6.1-3.6-14.9-6.6-20.6-0.6c-12.1,5.6-25.1-1.7-37.6-1c-50.6-4.1-105.3,6.4-144.1,41c-26.3,23.6-49.6,51.4-64.9,83.4
	c-3.7,7.1-4,19.1,5.4,21.7c9.8,3.1,20.8,1.9,30.4-1.2c7.5-4,6.4-14,2-19.9c-2.5-4.6-7.5-11.5-3.1-16.2c5.9-2.1,14.3,2.1,13.3,9.1
	c1.4,10.8,6.6,22.4,1.1,32.7c-1.8,4.3,0.6,9.6,5.4,10.3C57.8,376.2,64,379.2,65.3,378.2L65.3,378.2z"/>
</svg>
