<?xml version="1.0" encoding="UTF-8" standalone="no"?>
<svg id="svg4320" xmlns:rdf="http://www.w3.org/1999/02/22-rdf-syntax-ns#" xmlns="http://www.w3.org/2000/svg" height="318.7" viewBox="0 0 902.99568 318.70088" width="903" version="1.1" xmlns:cc="http://creativecommons.org/ns#" xmlns:dc="http://purl.org/dc/elements/1.1/">
<path id="path4330" stroke-linejoin="round" d="m850.77 114.12c-6.0175-2.5284-19.056 5.3967-65.765 39.101-9.87 7.1219-28.695 20.091-41.835 28.82-36.111 23.991-36.943 25.684-23.764 48.494 8.2283 14.241 8.1883 14.117 5.5033 16.26-17.182 13.716-54.303 32.492-66.752 33.763-25.478 2.6007-32.805-5.2273-29.898-31.939 2.5647-23.569 2.346-23.851-20.366-26.464-49.38-5.68-77.99-21.15-114.96-62.16-40.3-44.7-54.3-59.42-68.19-71.631-14.06-12.365-17.16-14.65-40.12-29.587-12.04-7.829-23.52-15.4-25.51-16.827-27.64-19.79-73.63-33.832-113.11-34.536-36.904-0.6588-32.844-9.0288-38.665 79.708-1.4841 22.624-3.2695 41.908-4.0446 43.704-1.3711 3.1768-19.317 27.039-23.369 31.073-3.1015 3.0879 2.5428 4.3365-91.816-20.333-34.555-9.0343-35.844-9.2592-39.431-6.8924-3.619 2.3882-31.717 43.859-35.254 52.031-7.6745 17.734-8.9931 109.83-1.7212 120.54 4.1519 6.1214 9.2742 6.1019 57.349-0.22715 24.094-3.1719 61.92-7.987 84.058-10.702 57.188-7.0113 53.682-4.535 52.663-37.188-1.5492-49.662-1.3058-54.388 3.5679-68.905 2.9713-8.8512 3.5823-10.099 9.2832-18.97 25.484-39.655 85.577-45.536 118.65-11.612 16.52 16.943 41.543 75.167 39.184 91.171-2.3626 16.024-9.7179 13.749 93.658 28.955 47.597 7.0013 105.42 15.55 128.49 18.995 83.906 12.532 85.418 12.239 147.26-28.455 19.721-12.979 36.007-23.942 36.189-24.363 0.18192-0.4215 5.5926-4.2476 12.023-8.5016 111.04-73.453 104.9-68.696 99.808-77.341-1.9923-3.3835-38.35-42.622-41.997-45.326-0.34646-0.25714-0.72057-0.47547-1.117-0.642z" stroke="#ffffff30" stroke-width="13.8" fill="none"/>
</svg>
