<?xml version="1.0" encoding="UTF-8" standalone="no"?>
<svg id="svg4366" xmlns:rdf="http://www.w3.org/1999/02/22-rdf-syntax-ns#" xmlns="http://www.w3.org/2000/svg" height="616.13" viewBox="0 0 919.9754 616.13269" width="919.98" version="1.1" xmlns:cc="http://creativecommons.org/ns#" xmlns:dc="http://purl.org/dc/elements/1.1/">
<path id="path4376" stroke-linejoin="round" d="m791.8 7.5007c-2.7435 0.036122-5.6028 1.2785-9.0274 3.5469-7.5862 5.0249-9.1617 10.044-10.9 34.719-2.3657 33.574-2.3604 33.609 17.818 97.752 17.455 55.484 20.43 91.368 8.6602 104.46-12.416 13.81-16.25 14.216-94.637 10.027-10.02-0.54-48.59-2.55-85.71-4.48-83.415-4.3297-79.842-4.0301-95.262-8.0293-25.008-6.486-42.472-16.45-172.72-98.545-28.216-17.784-34.614-18.317-42.611-3.5547-1.5254 2.8157-8.6803 15.469-15.9 28.119-7.22 12.65-18.724 33.739-25.564 46.865-18.82 36.115-11.012 38.713-77.938-25.922-22.612-21.838-29.195-24.703-44.594-19.414-0.25968 0.0892-0.48898 0.17701-0.74219 0.26562-1.0048 0.29088-2.0109 0.65321-3.0176 1.1133-0.0139 0.008-0.0271 0.0172-0.041 0.0254-13.393 5.293-18.208 12.812-44.65 62.443-12.783 23.993-36.17 66.123-51.971 93.623-37.559 65.33-35.085 60.19-35.314 73.34l-0.18555 10.654 4.6836 7.5273c5.2719 8.4716 7.294 10.265 24.633 21.859 12.937 8.651 19.728 12.107 23.787 12.107 3.2593 0 4.0198 2.1817 5.3965 15.5 3.7093 35.883 4.5412 37.564 29.266 59.174 6.1792 5.4008 11.684 10.301 12.234 10.889 0.55 0.58762 5.3283 4.7644 10.619 9.2832 11.839 10.112 14.53 13.286 29.369 34.654 15.219 21.916 14.677 21.203 17.012 22.367 6.0713 3.0261 10.398-0.64515 13.395-11.367 1.0661-3.8149 13.967-75.437 21.615-120 20.276-118.14 35.299-189.12 43.18-204 7.7524-14.637 13.512-12.666 41.811 14.309 43.81 41.761 92.519 76.914 111.21 80.262 19.456 3.4844 25.736 5.1091 29.463 7.6211 4.3916 2.9604 3.9275 1.8686 9.2773 21.852 9.0477 33.796 6.9638 32.853 84.047 37.984l53 3.5293 6.1426-2.5957c8.1607-3.4474 9.7622-6.6614 15.404-30.92 6.3022-27.097 4.4331-26.12 44.723-23.389 41.077 2.7844 44.156 4.6191 44.213 26.348 0.0585 22.301 14.838 30.508 57.559 31.965 10.428 0.35572 25.709 1.0404 33.959 1.5215 112.24 6.5453 105.87 7.8395 124.84-25.371 18.631-32.619 18.522-22.916 1.5625-139.51-10.03-68.93-21.65-166.6-24.51-205.99-1.4-19.239-7.82-27.04-21.08-25.619-15.76 1.688-33.13-7.105-44.93-22.752-7.54-9.989-12.36-14.317-17.59-14.248z" stroke="#ffffff30" stroke-width="15" fill="none"/>
</svg>
