<?xml version="1.0" encoding="utf-8"?>
<!-- Generator: Adobe Illustrator 22.0.1, SVG Export Plug-In . SVG Version: 6.00 Build 0)  -->
<svg version="1.1"
	 id="svg2" xmlns:cc="http://creativecommons.org/ns#" xmlns:dc="http://purl.org/dc/elements/1.1/" xmlns:rdf="http://www.w3.org/1999/02/22-rdf-syntax-ns#"
	 xmlns="http://www.w3.org/2000/svg" xmlns:xlink="http://www.w3.org/1999/xlink" x="0px" y="0px" viewBox="0 0 557.2 343.5"
	 style="enable-background:new 0 0 557.2 343.5;" xml:space="preserve">
<style type="text/css">
	.st0{fill:none;stroke:#ffffff30;stroke-width:9.3;stroke-linejoin:round;}
</style>
<path id="path4757" class="st0" d="M5.5,330.6c1.7,5,7,5.2,42.2,5.7c19.8,0.3,42.1,0.6,49.7,0.7c7.6,0.1,14.4,0.2,15.3,0.1
	c0.8-0.1,23.4,0.1,50.1,0.5c26.7,0.3,66.6,0.8,88.7,1.1c22.1,0.3,51.8,0,66.1-0.6c14.3-0.6,44.9-0.9,68.1-0.6
	c40.9,0.5,48.9,0,49.7-3.2c0.2-0.8-0.9-5-2.5-9.4c-3.6-10-3.5-13.3,0.7-15.9c1.7-1.1,7.1-4.5,11.9-7.5
	c26.9-16.9,38.1-28.6,46.9-48.7c8.3-19,39.7-103.2,43.1-115.8c5.8-21.3,6.6-25.8,12.4-70.3c3.1-24.1,5.1-43.5,4.6-45.2
	c-1-3.4-4.5-6.4-6.7-5.7c-3.8,1.2-15.2,1.4-17.1,0.3c-1.2-0.7-3-3.1-4.1-5.3c-1.2-2.5-3.1-4.5-5-5.4c-3-1.4-3-1.4-23.7,6.1
	c-19.7,7.2-20.7,7.6-22,10.3c-2.4,5.1-1.6,8.2,6.1,23.5c12.6,24.9,32,64.6,32.8,67.1c1.2,3.6-0.4,11.7-6,31.2
	c-3.9,13.6-5.7,18.1-8.1,20.7c-3.5,3.7-25.7,17.2-31,18.9c-1.9,0.6-4.2,0.9-5,0.7c-1-0.3-3.7-5-7.9-14c-7.4-15.9-9.9-19.9-12.8-20.4
	c-2.4-0.4-32.6,10.4-35.6,12.7c-2.7,2.1-3.5,9.4-1.9,18.6c1.3,7.7,2.1,9.6,18,41.8c17.3,35.1,17.4,35.3,14.6,40.2
	c-2.2,3.9-36.8,41.3-40.2,43.5c-2.1,1.4-5.2,2.5-8,2.8c-4,0.5-5,0.2-7.3-2.2c-1.6-1.7-10.2-18.2-22-42.3
	c-46.2-94.5-57.2-116.7-59.1-119.3c-2.9-4-9.9-6.5-14.3-5.1c-3.8,1.2-51.6,30.2-60.2,36.6c-8.2,6-9.1,8.4-9.1,26
	c0,8.4-0.4,17.6-0.9,20.5c-1.6,10.9-8.6,22.2-18.4,29.6c-7.8,5.9-14.6,7.7-33.2,8.5c-26.5,1.2-41,4.8-64.2,16.2
	c-7,3.4-14.3,6.9-16.3,7.9c-33.4,15.6-31.9,14.5-31.7,23.5c0.1,3.9-0.3,7.9-0.9,8.8c-1.3,2.1-2.9,2.2-22.8,1.6
	C7,318.7,3.4,320,5,328.2C5.1,329.1,5.3,329.9,5.5,330.6L5.5,330.6z"/>
</svg>
