<?xml version="1.0" encoding="utf-8"?>
<!-- Generator: Adobe Illustrator 22.0.1, SVG Export Plug-In . SVG Version: 6.00 Build 0)  -->
<svg version="1.1"
	 id="svg2" xmlns:cc="http://creativecommons.org/ns#" xmlns:dc="http://purl.org/dc/elements/1.1/" xmlns:rdf="http://www.w3.org/1999/02/22-rdf-syntax-ns#"
	 xmlns="http://www.w3.org/2000/svg" xmlns:xlink="http://www.w3.org/1999/xlink" x="0px" y="0px" viewBox="0 0 947.2 388.5"
	 style="enable-background:new 0 0 947.2 388.5;" xml:space="preserve">
<style type="text/css">
	.st0{fill:none;stroke:#ffffff30;stroke-width:10.6;stroke-linejoin:round;}
</style>
<path id="path4146" class="st0" d="M13,316.5c9.1,2.7,26.3,3.7,52.6,3.9c102,0.6,139.8,2.8,222.6,12.6
	c87.3,10.3,111.9,14.5,249.3,42.7c54.3,11.1,57.3,10.7,49.7-6.7c-3.9-8.8-18-53.9-23.2-74.1c-5.5-21-1-24,21.4-14.3
	c18.9,8.2,18.1,6.9,18.9,29.3c0.8,24.6,23.7,51.9,42.3,50.4c10.1-0.8,9.8-4.9-6.1-78.9c-3.2-15.1-6.6-17.4-1.2-30.7
	c10.8-26.8,23.5-34.3,63.1-36.9c20.9-1.4,50.4,20.8,56,42.1c7.5,28.1,28.4,85.3,32.9,90c6.9,7.2,14.5,6.9,122.7-4.5
	c22.4-2.4,27.4-4.8,28-13.4c0.3-4.6-30.8-52.5-99.2-152.6c-14-20.5-25.9-38.2-26.3-39.3c-4.2-10.8-67.3-101.4-82.3-118.2
	C723.3,5.6,719.5,3.5,714.3,6.5c-6.2,3.6-6.4,5.3-5.8,46.7c1.1,74.9-2,78.8-77.8,97.8c-54.3,13.6-56.7,14.7-71.4,33.3
	c-11.1,14-17.2,16.8-38.3,18c-16.1,0.9-27.5,9.5-32.4,24.6c-7.7,23.5-38.8,40.3-62.7,33.9c-13.8-2.3-22.4-14.4-32.3-23.5
	c-12.7-11.6-23.7-21.2-24.5-21.5c-6.1-1.9-31.3,7.6-49.1,18.5c-23.9,14.7-38.2,11.8-44.3-9c-3.5-12-6.2-16.4-10.9-17.9
	c-6.4-2.1-92.7-9.3-97.7-8.2c-3.1,0.7-111.6,69.4-135,85.4C5.5,302.7-2.1,312,13,316.5L13,316.5z"/>
</svg>
